<?xml version="1.0" encoding="utf-8"?>
<!-- Svg Vector Icons : http://www.onlinewebfonts.com/icon -->
<!DOCTYPE svg PUBLIC "-//W3C//DTD SVG 1.1//EN" "http://www.w3.org/Graphics/SVG/1.1/DTD/svg11.dtd">
<svg version="1.1" xmlns="http://www.w3.org/2000/svg" xmlns:xlink="http://www.w3.org/1999/xlink" x="0px" y="0px" viewBox="0 0 1000 1000" fill="#fff" enable-background="new 0 0 1000 1000" xml:space="preserve">
<metadata> Svg Vector Icons : http://www.onlinewebfonts.com/icon </metadata>
<g><path d="M310.1,480.4c-6.4,4.1-10.7,11.4-10.7,19.8c0,8.4,4.3,15.6,10.7,19.8c2.5,4.7,459.7,409.5,459.7,409.5c13.4,13.9,13.4,36.3,0,50.2c-13.4,13.9-35.2,13.9-48.6,0L252.9,566.3c-21.3-25.8-32.7-38.9-32.7-66.1c0-26.1,9.8-38.4,30.5-64.3L721.1,20.4c13.4-13.9,35.2-13.9,48.6,0c13.4,13.9,13.4,36.3,0,50.2C769.8,70.6,312.7,475.6,310.1,480.4"/></g>
</svg>