<svg xmlns="http://www.w3.org/2000/svg" fill="#274263" width="100" height="100"  xmlns:v="https://vecta.io/nano"><path d="M77.926 94.924H8.217A3.22 3.22 0 0 1 5 91.706V21.997a3.22 3.22 0 0 1 3.217-3.217h34.854a3.22 3.22 0 0 1 3.217 3.217 3.22 3.22 0 0 1-3.217 3.217H11.435v63.275h63.274V56.851a3.22 3.22 0 0 1 3.217-3.217 3.22 3.22 0 0 1 3.217 3.217v34.855c.001 1.778-1.44 3.218-3.217 3.218zm16.133-78.89L84.032 6.017c-1.255-1.255-3.292-1.255-4.547 0L35.396 50.116c-.29.29-.525.633-.686 1.008l-7.496 17.513c-.526 1.212-.247 2.617.676 3.539a3.2 3.2 0 0 0 2.274.944c.429 0 .858-.086 1.276-.257l17.513-7.496c.375-.161.719-.397 1.008-.686L94.06 20.593c1.254-1.267 1.254-3.304-.001-4.559zM36.286 63.79l2.928-6.821 3.893 3.893-6.821 2.928zm10.639-5.169l-5.469-5.469L73.007 21.6l5.47 5.469-31.552 31.552zm34.586-34.587l-5.469-5.469 5.716-5.716 5.469 5.459-5.716 5.726z"/></svg>